<svg width="80" height="80" viewBox="0 0 80 80" fill="none" xmlns="http://www.w3.org/2000/svg">
<path d="M0 14C0 6.26801 6.26801 0 14 0H66C73.732 0 80 6.26801 80 14V66C80 73.732 73.732 80 66 80H14C6.26801 80 0 73.732 0 66V14Z" fill="#030213"/>
<path d="M36 45.32V48.572C35.9924 49.2573 35.809 49.9291 35.4672 50.523C35.1254 51.117 34.6367 51.6132 34.048 51.964C32.7983 52.8896 31.7817 54.094 31.079 55.4813C30.3763 56.8687 30.0068 58.4008 30 59.956" stroke="white" stroke-width="4" stroke-linecap="round" stroke-linejoin="round"/>
<path d="M44 45.32V48.572C44.0076 49.2573 44.191 49.9291 44.5328 50.523C44.8746 51.117 45.3633 51.6132 45.952 51.964C47.2017 52.8896 48.2183 54.094 48.921 55.4813C49.6237 56.8687 49.9932 58.4008 50 59.956" stroke="white" stroke-width="4" stroke-linecap="round" stroke-linejoin="round"/>
<path d="M52 34H55C56.3261 34 57.5979 33.4732 58.5355 32.5355C59.4732 31.5979 60 30.3261 60 29C60 27.6739 59.4732 26.4021 58.5355 25.4645C57.5979 24.5268 56.3261 24 55 24H52" stroke="white" stroke-width="4" stroke-linecap="round" stroke-linejoin="round"/>
<path d="M24 60H56" stroke="white" stroke-width="4" stroke-linecap="round" stroke-linejoin="round"/>
<path d="M28 34C28 37.1826 29.2643 40.2348 31.5147 42.4853C33.7652 44.7357 36.8174 46 40 46C43.1826 46 46.2348 44.7357 48.4853 42.4853C50.7357 40.2348 52 37.1826 52 34V22C52 21.4696 51.7893 20.9609 51.4142 20.5858C51.0391 20.2107 50.5304 20 50 20H30C29.4696 20 28.9609 20.2107 28.5858 20.5858C28.2107 20.9609 28 21.4696 28 22V34Z" stroke="white" stroke-width="4" stroke-linecap="round" stroke-linejoin="round"/>
<path d="M28 34H25C23.6739 34 22.4021 33.4732 21.4645 32.5355C20.5268 31.5979 20 30.3261 20 29C20 27.6739 20.5268 26.4021 21.4645 25.4645C22.4021 24.5268 23.6739 24 25 24H28" stroke="white" stroke-width="4" stroke-linecap="round" stroke-linejoin="round"/>
</svg>
